/* XPM */
static char * C:\Users\aoualp\Desktop\Shared VM folder\SKEIN fork\img\originales\bitcoin128_xpm[] = {
"128 128 8 1",
" 	c None",
".	c #FF6600",
"+	c #F7680C",
"@	c #02A1F3",
"#	c #F8680B",
"$	c #02A2F3",
"%	c #F8680A",
"&	c #03A1F2",
"...............................................................+@@@@@@@@@@@@@@@@@@@@@@@@@@@@@@@@@@@@@@@@@@@@@@@@@@@@@@@@@@@@@@@@",
"...............................................................#@@@@@@@@@@@@@@@@@@@@@@@@@@@@@@@@@@@@@@@@@@@@@@@@@@@@@@@@@@@@@@@@",
"...............................................................#@@@@@@@@@@@@@@@@@@@@@@@@@@@@@@@@@@@@@@@@@@@@@@@@@@@@@@@@@@@@@@@@",
"...............................................................#@@@@@@@@@@@@@@@@@@@@@@@@@@@@@@@@@@@@@@@@@@@@@@@@@@@@@@@@@@@@@@@@",
"...............................................................#@@@@@@@@@@@@@@@@@@@@@@@@@@@@@@@@@@@@@@@@@@@@@@@@@@@@@@@@@@@@@@@@",
"...............................................................#@@@@@@@@@@@@@@@@@@@@@@@@@@@@@@@@@@@@@@@@@@@@@@@@@@@@@@@@@@@@@@@@",
"...............................................................#@@@@@@@@@@@@@@@@@@@@@@@@@@@@@@@@@@@@@@@@@@@@@@@@@@@@@@@@@@@@@@@@",
"...............................................................#@@@@@@@@@@@@@@@@@@@@@@@@@@@@@@@@@@@@@@@@@@@@@@@@@@@@@@@@@@@@@@@@",
"...............................................................#@@@@@@@@@@@@@@@@@@@@@@@@@@@@@@@@@@@@@@@@@@@@@@@@@@@@@@@@@@@@@@@@",
"...............................................................#@@@@@@@@@@@@@@@@@@@@@@@@@@@@@@@@@@@@@@@@@@@@@@@@@@@@@@@@@@@@@@@@",
"...............................................................#@@@@@@@@@@@@@@@@@@@@@@@@@@@@@@@@@@@@@@@@@@@@@@@@@@@@@@@@@@@@@@@@",
"...............................................................#@@@@@@@@@@@@@@@@@@@@@@@@@@@@@@@@@@@@@@@@@@@@@@@@@@@@@@@@@@@@@@@@",
"...............................................................#@@@@@@@@@@@@@@@@@@@@@@@@@@@@@@@@@@@@@@@@@@@@@@@@@@@@@@@@@@@@@@@@",
"...............................................................#@@@@@@@@@@@@@@@@@@@@@@@@@@@@@@@@@@@@@@@@@@@@@@@@@@@@@@@@@@@@@@@@",
"...............................................................#@@@@@@@@@@@@@@@@@@@@@@@@@@@@@@@@@@@@@@@@@@@@@@@@@@@@@@@@@@@@@@@@",
"...............................................................#@@@@@@@@@@@@@@@@@@@@@@@@@@@@@@@@@@@@@@@@@@@@@@@@@@@@@@@@@@@@@@@@",
"...............................................................#@@@@@@@@@@@@@@@@@@@@@@@@@@@@@@@@@@@@@@@@@@@@@@@@@@@@@@@@@@@@@@@@",
"...............................................................#@@@@@@@@@@@@@@@@@@@@@@@@@@@@@@@@@@@@@@@@@@@@@@@@@@@@@@@@@@@@@@@@",
"...............................................................#@@@@@@@@@@@@@@@@@@@@@@@@@@@@@@@@@@@@@@@@@@@@@@@@@@@@@@@@@@@@@@@@",
"...............................................................#@@@@@@@@@@@@@@@@@@@@@@@@@@@@@@@@@@@@@@@@@@@@@@@@@@@@@@@@@@@@@@@@",
"...............................................................#@@@@@@@@@@@@@@@@@@@@@@@@@@@@@@@@@@@@@@@@@@@@@@@@@@@@@@@@@@@@@@@@",
"...............................................................#@@@@@@@@@@@@@@@@@@@@@@@@@@@@@@@@@@@@@@@@@@@@@@@@@@@@@@@@@@@@@@@@",
"...............................................................#@@@@@@@@@@@@@@@@@@@@@@@@@@@@@@@@@@@@@@@@@@@@@@@@@@@@@@@@@@@@@@@@",
"...............................................................#@@@@@@@@@@@@@@@@@@@@@@@@@@@@@@@@@@@@@@@@@@@@@@@@@@@@@@@@@@@@@@@@",
"...............................................................#@@@@@@@@@@@@@@@@@@@@@@@@@@@@@@@@@@@@@@@@@@@@@@@@@@@@@@@@@@@@@@@@",
"...............................................................#@@@@@@@@@@@@@@@@@@@@@@@@@@@@@@@@@@@@@@@@@@@@@@@@@@@@@@@@@@@@@@@@",
"...............................................................#@@@@@@@@@@@@@@@@@@@@@@@@@@@@@@@@@@@@@@@@@@@@@@@@@@@@@@@@@@@@@@@@",
"...............................................................#@@@@@@@@@@@@@@@@@@@@@@@@@@@@@@@@@@@@@@@@@@@@@@@@@@@@@@@@@@@@@@@@",
"...............................................................#@@@@@@@@@@@@@@@@@@@@@@@@@@@@@@@@@@@@@@@@@@@@@@@@@@@@@@@@@@@@@@@@",
"...............................................................#@@@@@@@@@@@@@@@@@@@@@@@@@@@@@@@@@@@@@@@@@@@@@@@@@@@@@@@@@@@@@@@@",
"...............................................................#@@@@@@@@@@@@@@@@@@@@@@@@@@@@@@@@@@@@@@@@@@@@@@@@@@@@@@@@@@@@@@@@",
"...............................................................#@@@@@@@@@@@@@@@@@@@@@@@@@@@@@@@@@@@@@@@@@@@@@@@@@@@@@@@@@@@@@@@@",
"...............................................................#@@@@@@@@@@@@@@@@@@@@@@@@@@@@@@@@@@@@@@@@@@@@@@@@@@@@@@@@@@@@@@@@",
"........            ....              .........................#@@@@@@@@@@@@@@@@@@@@@@@@@@@@@@@@@@ @@@@@@@@@@@@@@@@@@@@@@@@@@@@@",
"........             ...                   ....................#@@@@@@@@@@@@@@@@@@@@@@@@@       @@      @@@@@@@@@@@@@@@@@@@@@@@@",
"........              ..                     ..................#@@@@@@@@@@@@@@@@@@@@@@@         @@        @@@@@@@@@@@@@@@@@@@@@@",
"........              ..                       ................#@@@@@@@@@@@@@@@@@@@@@           @@          @@@@@@@@@@@@@@@@@@@@",
"........  ..          ..                        ... ...........#@@@@@@@@@@@@@@@@@@@@            @@           @@@@@@@@@@@@@@@@@@@",
".........             ..                          .............#@@@@@@@@@@@@@@@@@@              @@             @@@@@@@@@@@@@@@@@",
".........             ..                           ............#@@@@@@@@@@@@@@@@@               @@              @@@@@@@@@@@@@@@@",
"........              ..                           ............#@@@@@@@@@@@@@@@@                @@               @@@@@@@@@@@@@@@",
"........              ..                            ...........#@@@@@@@@@@@@@@@                 @@                @@@@@@@@@@@@@@",
"........              ..                            ...........#@@@@@@@@@@@@@@                  @@                 @@@@@@@@@@@@@",
"........  .           ..                             ..........#@@@@@@@@@@@@@@                  @@                  @@@@@@@@@@@@",
"........              ..                             ..........#@@@@@@@@@@@@@                   @@                  @@@@@@@@@@@@",
"........     .        ..                              .........#@@@@@@@@@@@@                   @@@                   @@@@@@@@@@@",
"........              ..............                  .........#@@@@@@@@@@@@                  @@@@@                  @@@@@@@@@@@",
"........              ................                .........#@@@@@@@@@@@                 @@@@@@@@@@                @@@@@@@@@@",
"........    .         .................                ........#@@@@@@@@@@@               @@@@@@@@@@@@@               @@@@@@@@@@",
"........    .         ..................               ........#@@@@@@@@@@               @@@@@@@@@@@@@@@               @@@@@@@@@",
"........  ...         ..................               ........#@@@@@@@@@@              @@@@@@@@@@@@@@@@@              @@@@@@@@@",
"........              ...................              ........#@@@@@@@@@@             @@@@@@@@@@@@@@@@@@@              @@@@@@@@",
"........              ...................              ........#@@@@@@@@@              @@@@@@@@@@@@@@@@@@@@             @@@@@@@@",
"........              ...................              ........#@@@@@@@@@             @@@@@@@@@@@@@@@@@@@@@             @@@@@@@@",
"........              ....................             ........#@@@@@@@@@             @@@@@@@@@@@@@@@@@@@@@@            @@@@@@@@",
"........    .         ....................              .......#@@@@@@@@             @@@@@@@@@@@@@@@@@@@@@@@          @@@@@@@@@@",
"........              ....................              .......#@@@@@@@@             @@@@@@@@@@@@@@@@@@@@@@@@        @@@@@@@@@@@",
"........              ....................              .......#@@@@@@@@             @@@@@@@@@@@@@@@@@@@@@@@@      @@@@@@@@@@@@@",
".........             ....................              .......#@@@@@@@@            @@@@@@@@@@@@@@@@@@@@@@@@@    @@@@@@@@@@@@@@@",
"........              ....................              .......#@@@@@@@@            @@@@@@@@@@@@@@@@@@@@@@@@@@  @@@@@@@@@@@@@@@@",
"........              ....................              .......#@@@@@@@@            @@@@@@@@@@@@@@@@@@@@@@@@@@@@@@@@@@@@@@@@@@@@",
"........              ....................              .......#@@@@@@@             @@@@@@@@@@@@@@@@@@@@@@@@@@@@@@@@@@@@@@@@@@@@",
"........              ....................              .......#@@@@@@@             @@@@@@@@@@@@@@@@@@@@@@@@@@@@@@@@@@@@@@@@@@@@",
"........              ....................              .......#@@@@@@@            @@@@@@@@@@@@@@@@@@@@@@@@@@@@@@@@@@@@@@@@@@@@@",
"........              ....................              .......#@@@@@@@            @@@@@@@@@@@@@@@@@@@@@@@@@@@@@@@@@@@@@@@@@@@@@",
"........              ....................              .......#@@@@@@@            @@@@@@@@@@@@@@@@@@@@@@@@@@@@@@@@@@@@@@@@@@@@@",
"........              ....................              .......#@@@@@@@            @@@@@@@@@@@@@@@@@@@@@@@@@@@@@@@@@@@@@@@@@@@@@",
"........              ....................              .......#@@@@@@@     @@@    @@@@@@@@@@@@@@@@@@@@@@@@@@@@@@@@@@@@@@@@@@@@@",
"........             .....................              .......#@@@@@@@      @@@@ @@@@@@@@@@@@@@@@@@@@@@@@@@@@@@@@@@@@@@@@@@@@@@",
"........        ..    ....................              .......#@@@@@@@     @@@@@  @@@@@@@@@@@@@@@@@@@@@@@@@@@@@@@@@@@@@@@@@@@@@",
"........ .        .   ....................              .......#@@@@@@@        @   @@@@@@@@@@@@@@@@@@@@@@@@@@@@@@@@@@@@@@@@@@@@@",
"........ .            ....................              .......#@@@@@@@$           @@@@@@@@@@@@@@@@@@@@@@@@@@@@@@@@@@@@@@@@@@@@@",
"........ .     .     .....................              .......#@@@@@@@@@           @@@@@@@@@@@@@@@@@@@@@@@@@@@@@@@@@@@@@@@@@@@@",
"..........           .....................              .......#@@@@@@@@@           @@@@@@@@@@@@@@@@@@@@@@@@@@@@@@@@@@@@@@@@@@@@",
"........         .  ......................              .......#@@@@@@@             @@@@@@@@@@@@@@@@@@@@@@@@@@@@@@@@@@@@@@@@@@@@",
"........           .. ....................              .......#@@@@@@@             @@@@@@@@@@@@@@@@@@@@@@@@@@@@@@@@@@@@@@@@@@@@",
"........           .  ....................              .......#@@@@@@@@   @@       @@@@@@@@@@@@@@@@@@@@@@@@@@@@@@@@@@@@@@@@@@@@",
"........              ....................              .......#@@@@@@@@@@@@        @@@@@@@@@@@@@@@@@@@@@@@@@ @@@@@@@@@@@@@@@@@@",
"........    .         ....................              .......#@@@@@@@@       @@@  @@@@@@@@@@@@@@@@@@@@@@@@@  @@@@@@@@@@@@@@@@@",
"........              ....................              .......#@@@@@@@@@        @   @@@@@@@@@@@@@@@@@@@@@@@@    @@@@@@@@@@@@@@@",
"........              ....................              .......#@@@@@@@@@  @@@       @@@@@@@@@@@@@@@@@@@@@@@@     @@@@@@@@@@@@@@",
"........      .       ....................             ........#@@@@@@@@@ @           @@@@@@@@@@@@@@@@@@@@@@@      @@@@@@@@@@@@@",
"........              ...................              ........#@@@@@@@@@             @@@@@@@@@@@@@@@@@@@@@@         @@@@@@@@@@@",
"........         .    ...................              ........#@@@@@@@@@             @@@@@@@@@@@@@@@@@@@@@           @@@@@@@@@@",
"........              ...................              ........#@@@@@@@@@@             @@@@@@@@@@@@@@@@@@@             @@@@@@@@@",
"........   ..         ..................               ........#@@@@@@@@@@              @@@@@@@@@@@@@@@@@@  @          @@@@@@@@@",
"........          ..  ..................               ........#@@@@@@@@@@@             @@@@@@@@@@@@@@@@@              @@@@@@@@@",
"........              .................                ........#@@@@@@@@@@@               @@@@@@@@@@@@@@              @@@@@@@@@@",
"........              ...............                 .........#@@@@@@@@@@@                @@@@@@@@@@@                @@@@@@@@@@",
"........              ..............                  .........#@@@@@@@@@@@@                 @@@@@@@                 @@@@@@@@@@@",
"........              ..          .                   .........#@@@@@@@@@@@@                  @@@@@@                 @@@@@@@@@@@",
"........              ..     .                       ..........#@@@@@@@@@@@@@  @      @     @@@@@@@@                @@@@@@@@@@@@",
"........              .. ..  .                       ..........#@@@@@@@@@@@@@@             @   @@@@                 @@@@@@@@@@@@",
"........              ..  .       .                 ...........#@@@@@@@@@@@@@@             @   @@@@                @@@@@@@@@@@@@",
"........           .  ..                           ............#@@@@@@@@@@@@@@@    @           @@@@               @@@@@@@@@@@@@@",
"........         . .  ..                           ............#@@@@@@@@@@@@@@@@              @@@@@              @@@@@@@@@@@@@@@",
"........         .    ..                         ..............#@@@@@@@@@@@@@@@@@              @@@@@            @@@@@@@@@@@@@@@@",
"........ .            ..                         ..............#@@@@@@@@@@@@@@@@@@            @@@@ @           @@@@@@@@@@@@@@@@@",
"........              ..                        ...............#@@@@@@@@@@@@@@@@@@@        @@ @@@@            @@@@@@@@@@@@@@@@@@",
".........     ..   .  ..                       ................#@@@@@@@@@@@@@@@@@@@@        @ @ @@           @@@@@@@@@@@@@@@@@@@",
"........              ..                     ..................#@@@@@@@@@@@@@@@@@@@@@@@@@   @@@@@@         @@@@@@@@@@@@@@@@@@@@@",
"........   .          ..                   ....................#@@@@@@@@@@@@@@@@@@@@@@@@@   @  @@@       @@@@@@@@@@@@@@@@@@@@@@@",
"........         .    ..              .........................#@@@@@@@@@@@@@@@@@@@@@@@@@@@ @@ @@@    @@@@@@@@@@@@@@@@@@@@@@@@@@",
"...............................................................#@@@@@@@@@@@@@@@@@@@@@@@@@@@@@@@@@@@@@@@@@@@@@@@@@@@@@@@@@@@@@@@@",
"...............................................................#@@@@@@@@@@@@@@@@@@@@@@@@@@@@@@@@@@@@@@@@@@@@@@@@@@@@@@@@@@@@@@@@",
"...............................................................#@@@@@@@@@@@@@@@@@@@@@@@@@@@@@@@@@@@@@@@@@@@@@@@@@@@@@@@@@@@@@@@@",
"...............................................................#@@@@@@@@@@@@@@@@@@@@@@@@@@@@@@@@@@@@@@@@@@@@@@@@@@@@@@@@@@@@@@@@",
"...............................................................#@@@@@@@@@@@@@@@@@@@@@@@@@@@@@@@@@@@@@@@@@@@@@@@@@@@@@@@@@@@@@@@@",
"...............................................................#@@@@@@@@@@@@@@@@@@@@@@@@@@@@@@@@@@@@@@@@@@@@@@@@@@@@@@@@@@@@@@@@",
"...............................................................#@@@@@@@@@@@@@@@@@@@@@@@@@@@@@@@@@@@@@@@@@@@@@@@@@@@@@@@@@@@@@@@@",
"...............................................................#@@@@@@@@@@@@@@@@@@@@@@@@@@@@@@@@@@@@@@@@@@@@@@@@@@@@@@@@@@@@@@@@",
"...............................................................#@@@@@@@@@@@@@@@@@@@@@@@@@@@@@@@@@@@@@@@@@@@@@@@@@@@@@@@@@@@@@@@@",
"...............................................................#@@@@@@@@@@@@@@@@@@@@@@@@@@@@@@@@@@@@@@@@@@@@@@@@@@@@@@@@@@@@@@@@",
"...............................................................#@@@@@@@@@@@@@@@@@@@@@@@@@@@@@@@@@@@@@@@@@@@@@@@@@@@@@@@@@@@@@@@@",
"...............................................................#@@@@@@@@@@@@@@@@@@@@@@@@@@@@@@@@@@@@@@@@@@@@@@@@@@@@@@@@@@@@@@@@",
"...............................................................#@@@@@@@@@@@@@@@@@@@@@@@@@@@@@@@@@@@@@@@@@@@@@@@@@@@@@@@@@@@@@@@@",
"...............................................................#@@@@@@@@@@@@@@@@@@@@@@@@@@@@@@@@@@@@@@@@@@@@@@@@@@@@@@@@@@@@@@@@",
"...............................................................#@@@@@@@@@@@@@@@@@@@@@@@@@@@@@@@@@@@@@@@@@@@@@@@@@@@@@@@@@@@@@@@@",
"...............................................................#@@@@@@@@@@@@@@@@@@@@@@@@@@@@@@@@@@@@@@@@@@@@@@@@@@@@@@@@@@@@@@@@",
"...............................................................#@@@@@@@@@@@@@@@@@@@@@@@@@@@@@@@@@@@@@@@@@@@@@@@@@@@@@@@@@@@@@@@@",
"...............................................................#@@@@@@@@@@@@@@@@@@@@@@@@@@@@@@@@@@@@@@@@@@@@@@@@@@@@@@@@@@@@@@@@",
"...............................................................#@@@@@@@@@@@@@@@@@@@@@@@@@@@@@@@@@@@@@@@@@@@@@@@@@@@@@@@@@@@@@@@@",
"...............................................................#@@@@@@@@@@@@@@@@@@@@@@@@@@@@@@@@@@@@@@@@@@@@@@@@@@@@@@@@@@@@@@@@",
"...............................................................#@@@@@@@@@@@@@@@@@@@@@@@@@@@@@@@@@@@@@@@@@@@@@@@@@@@@@@@@@@@@@@@@",
"...............................................................#@@@@@@@@@@@@@@@@@@@@@@@@@@@@@@@@@@@@@@@@@@@@@@@@@@@@@@@@@@@@@@@@",
"...............................................................#@@@@@@@@@@@@@@@@@@@@@@@@@@@@@@@@@@@@@@@@@@@@@@@@@@@@@@@@@@@@@@@@",
"...............................................................#@@@@@@@@@@@@@@@@@@@@@@@@@@@@@@@@@@@@@@@@@@@@@@@@@@@@@@@@@@@@@@@@",
"...............................................................%&@@@@@@@@@@@@@@@@@@@@@@@@@@@@@@@@@@@@@@@@@@@@@@@@@@@@@@@@@@@@@@@"};
