/* XPM */
static char * C:\Users\aoualp\Desktop\Shared VM folder\SKEIN fork\img\originales\bitcoin32_xpm[] = {
"32 32 5 1",
" 	c None",
".	c #FF6600",
"+	c #FD6703",
"@	c #02A1F3",
"#	c #FE6703",
"...............+@@@@@@@@@@@@@@@@",
"...............#@@@@@@@@@@@@@@@@",
"...............#@@@@@@@@@@@@@@@@",
"...............#@@@@@@@@@@@@@@@@",
"...............#@@@@@@@@@@@@@@@@",
"...............#@@@@@@@@@@@@@@@@",
"...............#@@@@@@@@@@@@@@@@",
"...............#@@@@@@@@@@@@@@@@",
"..   .    .....#@@@@@@@ @@@@@@@@",
"..   .      ...#@@@@@       @@@@",
"..   .       ..#@@@@         @@@",
"..   ...     ..#@@@     @    @@@",
"..   .....    .#@@@   @@@@    @@",
"..   .....    .#@@   @@@@@@   @@",
"..   .....    .#@@   @@@@@@  @@@",
"..   .....    .#@@   @@@@@@@@@@@",
"..   .....    .#@@   @@@@@@@@@@@",
"..   .....    .#@@   @@@@@@@@@@@",
"..   .....    .#@@   @@@@@@@@@@@",
"..   .....    .#@@   @@@@@@@@@@@",
"..   .....    .#@@   @@@@@@  @@@",
"..   .....    .#@@@   @@@@    @@",
"..   ....    ..#@@@    @@    @@@",
"..   .       ..#@@@@    @    @@@",
"..   .      ...#@@@@@  @@   @@@@",
"..   .    .....#@@@@@@@@@ @@@@@@",
"...............#@@@@@@@@@@@@@@@@",
"...............#@@@@@@@@@@@@@@@@",
"...............#@@@@@@@@@@@@@@@@",
"...............#@@@@@@@@@@@@@@@@",
"...............#@@@@@@@@@@@@@@@@",
"...............#@@@@@@@@@@@@@@@@"};
