/* XPM */
static char * C:\Users\aoualp\Desktop\Shared VM folder\SKEIN fork\img\originales\bitcoin16_xpm[] = {
"16 16 5 1",
" 	c None",
".	c #FF6600",
"+	c #FE6701",
"@	c #02A1F3",
"#	c #FF6701",
".......+@@@@@@@@",
".......#@@@@@@@@",
".......#@@@@@@@@",
".......#@@@@@@@@",
".     .#@@@  @@@",
".      #@@    @@",
".  ..  #@  @@  @",
".  ..  #@ @@@@@@",
".  ..  #@ @@@@@@",
".  ..  #@ @@@@@@",
".  ..  #@  @@  @",
".      #@@    @@",
".     .#@@@  @@@",
".......#@@@@@@@@",
".......#@@@@@@@@",
".......#@@@@@@@@"};
