/* XPM */
static char * C:\Users\aoualp\Desktop\Shared VM folder\SKEIN fork\img\originales\bitcoin64_xpm[] = {
"64 64 6 1",
" 	c None",
".	c #FF6600",
"+	c #FB6706",
"@	c #02A1F3",
"#	c #FC6706",
"$	c #FC6705",
"...............................+@@@@@@@@@@@@@@@@@@@@@@@@@@@@@@@@",
"...............................#@@@@@@@@@@@@@@@@@@@@@@@@@@@@@@@@",
"...............................#@@@@@@@@@@@@@@@@@@@@@@@@@@@@@@@@",
"...............................#@@@@@@@@@@@@@@@@@@@@@@@@@@@@@@@@",
"...............................#@@@@@@@@@@@@@@@@@@@@@@@@@@@@@@@@",
"...............................#@@@@@@@@@@@@@@@@@@@@@@@@@@@@@@@@",
"...............................#@@@@@@@@@@@@@@@@@@@@@@@@@@@@@@@@",
"...............................#@@@@@@@@@@@@@@@@@@@@@@@@@@@@@@@@",
"...............................#@@@@@@@@@@@@@@@@@@@@@@@@@@@@@@@@",
"...............................#@@@@@@@@@@@@@@@@@@@@@@@@@@@@@@@@",
"...............................#@@@@@@@@@@@@@@@@@@@@@@@@@@@@@@@@",
"...............................#@@@@@@@@@@@@@@@@@@@@@@@@@@@@@@@@",
"...............................#@@@@@@@@@@@@@@@@@@@@@@@@@@@@@@@@",
"...............................#@@@@@@@@@@@@@@@@@@@@@@@@@@@@@@@@",
"...............................#@@@@@@@@@@@@@@@@@@@@@@@@@@@@@@@@",
"...............................#@@@@@@@@@@@@@@@@@@@@@@@@@@@@@@@@",
"...............................#@@@@@@@@@@@@@@@@@@@@@@@@@@@@@@@@",
"....       .          .........#@@@@@@@@@@@@    @    @@@@@@@@@@@",
"....       .            .......#@@@@@@@@@@      @     @@@@@@@@@@",
"....       .             ......#@@@@@@@@@       @       @@@@@@@@",
"....       .              .....#@@@@@@@@        @        @@@@@@@",
"....       .              .....#@@@@@@@         @         @@@@@@",
"....       .               ....#@@@@@@          @         @@@@@@",
"....       .......         ....#@@@@@@        @@@@         @@@@@",
"....       .........       ....#@@@@@        @@@@@@@       @@@@@",
"....       .........        ...#@@@@@       @@@@@@@@@       @@@@",
"....       ..........       ...#@@@@@      @@@@@@@@@@       @@@@",
"....       ..........       ...#@@@@       @@@@@@@@@@@     @@@@@",
"....       ..........       ...#@@@@      @@@@@@@@@@@@    @@@@@@",
"....       ..........       ...#@@@@      @@@@@@@@@@@@@ @@@@@@@@",
"....       ..........       ...#@@@@      @@@@@@@@@@@@@@@@@@@@@@",
"....       ..........       ...#@@@@      @@@@@@@@@@@@@@@@@@@@@@",
"....       ..........       ...#@@@@      @@@@@@@@@@@@@@@@@@@@@@",
"....       ..........       ...#@@@@      @@@@@@@@@@@@@@@@@@@@@@",
"....       ..........       ...#@@@@  @@@@@@@@@@@@@@@@@@@@@@@@@@",
"....       ..........       ...#@@@@      @@@@@@@@@@@@@@@@@@@@@@",
".....     ...........       ...#@@@@      @@@@@@@@@@@@@@@@@@@@@@",
"....      ...........       ...#@@@@      @@@@@@@@@@@@@@@@@@@@@@",
"....       ..........       ...#@@@@@@    @@@@@@@@@@@@@@@@@@@@@@",
"....       ..........       ...#@@@@    @ @@@@@@@@@@@@@ @@@@@@@@",
"....       ..........       ...#@@@@       @@@@@@@@@@@   @@@@@@@",
"....       ..........       ...#@@@@@      @@@@@@@@@@@     @@@@@",
"....       .........        ...#@@@@@       @@@@@@@@@       @@@@",
"....       .........       ....#@@@@@        @@@@@@@       @@@@@",
"....       .......         ....#@@@@@@        @@@@@        @@@@@",
"....       .               ....#@@@@@@        @@@@        @@@@@@",
"....       .              .....#@@@@@@@      @  @@        @@@@@@",
"....       .              .....#@@@@@@@@       @@        @@@@@@@",
"....       .             ......#@@@@@@@@@       @@      @@@@@@@@",
"....       .            .......#@@@@@@@@@@    @@@      @@@@@@@@@",
"....       .          .........#@@@@@@@@@@@@  @@@    @@@@@@@@@@@",
".............   ...............#@@@@@@@@@@@@@@@@@@@@@@@@@@@@@@@@",
"...............................#@@@@@@@@@@@@@@@@@@@@@@@@@@@@@@@@",
"...............................#@@@@@@@@@@@@@@@@@@@@@@@@@@@@@@@@",
"...............................#@@@@@@@@@@@@@@@@@@@@@@@@@@@@@@@@",
"...............................#@@@@@@@@@@@@@@@@@@@@@@@@@@@@@@@@",
"...............................#@@@@@@@@@@@@@@@@@@@@@@@@@@@@@@@@",
"...............................#@@@@@@@@@@@@@@@@@@@@@@@@@@@@@@@@",
"...............................#@@@@@@@@@@@@@@@@@@@@@@@@@@@@@@@@",
"...............................#@@@@@@@@@@@@@@@@@@@@@@@@@@@@@@@@",
"...............................#@@@@@@@@@@@@@@@@@@@@@@@@@@@@@@@@",
"...............................#@@@@@@@@@@@@@@@@@@@@@@@@@@@@@@@@",
"...............................#@@@@@@@@@@@@@@@@@@@@@@@@@@@@@@@@",
"...............................$@@@@@@@@@@@@@@@@@@@@@@@@@@@@@@@@"};
